<?xml version="1.0" encoding="iso-8859-1"?>
<!-- Uploaded to: SVG Repo, www.svgrepo.com, Generator: SVG Repo Mixer Tools -->
<svg height="800px" width="800px" version="1.1" id="Layer_1" xmlns="http://www.w3.org/2000/svg" xmlns:xlink="http://www.w3.org/1999/xlink" 
	 viewBox="0 0 512 512" xml:space="preserve">
<path style="fill:#00C6C1;" d="M378.435,178.087c0,49.099-39.945,89.043-89.043,89.043h-50.69c-14.83,0-28.033-9.958-32.107-24.218
	l-9.88-34.584c-1.454-5.088-6.343-8.419-11.636-7.93c-4.46,0.415-8.347,3.808-9.671,8.445l-9.735,34.07
	c-4.074,14.259-17.277,24.218-32.107,24.218H89.043C39.945,267.13,0,227.186,0,178.087s39.945-89.043,89.043-89.043h200.348
	C338.49,89.043,378.435,128.988,378.435,178.087z"/>
<path style="fill:#A5DDD3;" d="M269.154,267.13H238.7c-14.83,0-28.033-9.958-32.107-24.218l-9.88-34.584
	c-1.454-5.088-6.343-8.419-11.636-7.93c-4.46,0.415-8.347,3.808-9.671,8.445l-9.735,34.07
	c-4.073,14.259-17.276,24.218-32.106,24.218H89.043c-6.782,0-13.379-0.788-19.73-2.231l39.967-175.856h180.11
	c6.782,0,13.379,0.788,19.73,2.231L269.154,267.13z"/>
<g>
	<path style="fill:#007784;" d="M289.391,89.043H89.043C39.945,89.043,0,128.988,0,178.087s39.945,89.043,89.043,89.043h44.522
		c14.83,0,28.033-9.958,32.107-24.218l9.735-34.07c1.325-4.637,5.211-8.031,9.671-8.445c5.293-0.489,10.181,2.844,11.636,7.93
		l9.88,34.584c4.074,14.259,17.277,24.218,32.107,24.218h50.69c49.099,0,89.043-39.945,89.043-89.043S338.49,89.043,289.391,89.043z
		 M289.391,244.87h-50.69c-4.943,0-9.344-3.319-10.702-8.072l-9.88-34.584c-4.108-14.376-17.274-24.126-31.998-24.126
		c-1.027,0-2.064,0.048-3.104,0.146c-13.528,1.257-25.188,11.1-29.015,24.494l-9.735,34.071c-1.358,4.753-5.759,8.072-10.702,8.072
		H89.043c-36.824,0-66.783-29.959-66.783-66.783s29.959-66.783,66.783-66.783h200.348c36.824,0,66.783,29.959,66.783,66.783
		S326.215,244.87,289.391,244.87z"/>
	<path style="fill:#007784;" d="M486.308,354.723C483.538,442.052,411.882,512,323.88,512l0,0
		c-89.757,0-162.52-72.763-162.52-162.52v-15.728h62.911v15.727c0,55.012,44.596,99.61,99.61,99.61l0,0
		c53.256,0,96.749-41.795,99.473-94.374c0.046,0,0.09,0.007,0.137,0.007V270.84V31.456C423.489,14.083,437.572,0,454.944,0
		C472.317,0,486.4,14.083,486.4,31.456v239.386L486.308,354.723z"/>
</g>
<path style="fill:#00A3A4;" d="M438.894,31.456v323.267c0,1.327-0.116,2.628-0.339,3.892
	c-4.697,63.441-57.558,112.736-121.531,112.736c-67.2,0-121.87-54.67-121.87-121.87v-15.727h29.116v15.727
	c0,55.012,44.596,99.61,99.61,99.61l0,0c53.256,0,96.75-41.795,99.473-94.374c0.046,0,0.09,0.007,0.137,0.007v-83.881V31.456
	C423.489,14.083,437.572,0,454.944,0c5.454,0,10.582,1.389,15.053,3.831c-1.819,10.465-10.922,18.43-21.908,18.43
	C443.019,22.261,438.894,26.386,438.894,31.456z"/>
<path style="fill:#00C6C1;" d="M246.209,333.752c0,5.79-4.694,10.485-10.485,10.485h-83.882c-5.791,0-10.485-4.695-10.485-10.485
	c0-5.791,4.695-10.486,10.485-10.486h83.881C241.514,323.267,246.209,327.961,246.209,333.752z M486.083,312.782h2.591
	c12.882,0,23.326-9.39,23.326-20.971c0-11.581-10.444-20.971-23.326-20.971h-69.977c-12.882,0-23.325,9.39-23.325,20.971
	c0,11.581,10.444,20.971,23.325,20.971h2.592c-14.314,0-25.917,9.389-25.917,20.971c0,11.581,11.603,20.97,25.917,20.97h64.794
	c14.314,0,25.917-9.389,25.917-20.97C512,322.169,500.397,312.782,486.083,312.782z"/>
<path style="fill:#A5DDD3;" d="M512,333.752c0,0.055-0.01,0.107-0.01,0.161H395.382c0-0.055-0.01-0.107-0.01-0.161
	c0-11.582,11.603-20.971,25.917-20.971h64.794C500.397,312.782,512,322.169,512,333.752z M488.674,270.84h-69.977
	c-12.882,0-23.326,9.39-23.326,20.971H512C512,280.23,501.557,270.84,488.674,270.84z"/>
</svg>